<mxfile host="app.diagrams.net" modified="2022-05-12T11:05:26.961Z" agent="5.0 (Windows NT 10.0; Win64; x64) AppleWebKit/537.36 (KHTML, like Gecko) Chrome/101.0.4951.54 Safari/537.36" etag="MMw7CEzfgU7kx6-dNbGe" version="17.4.4" type="github">
  <diagram id="C5RBs43oDa-KdzZeNtuy" name="Page-1">
    <mxGraphModel dx="782" dy="436" grid="1" gridSize="10" guides="1" tooltips="1" connect="1" arrows="1" fold="1" page="1" pageScale="1" pageWidth="827" pageHeight="1169" math="0" shadow="0">
      <root>
        <mxCell id="WIyWlLk6GJQsqaUBKTNV-0" />
        <mxCell id="WIyWlLk6GJQsqaUBKTNV-1" parent="WIyWlLk6GJQsqaUBKTNV-0" />
        <mxCell id="HeqIuPr3Y-0YT7M4rxFN-6" style="edgeStyle=orthogonalEdgeStyle;rounded=0;orthogonalLoop=1;jettySize=auto;html=1;exitX=0;exitY=1;exitDx=0;exitDy=0;" edge="1" parent="WIyWlLk6GJQsqaUBKTNV-1" source="HeqIuPr3Y-0YT7M4rxFN-0">
          <mxGeometry relative="1" as="geometry">
            <mxPoint x="286" y="114" as="targetPoint" />
          </mxGeometry>
        </mxCell>
        <mxCell id="HeqIuPr3Y-0YT7M4rxFN-9" style="orthogonalLoop=1;jettySize=auto;html=1;exitX=1;exitY=1;exitDx=0;exitDy=0;entryX=-0.02;entryY=0.333;entryDx=0;entryDy=0;rounded=0;endArrow=none;endFill=0;strokeColor=default;entryPerimeter=0;" edge="1" parent="WIyWlLk6GJQsqaUBKTNV-1" source="HeqIuPr3Y-0YT7M4rxFN-0" target="HeqIuPr3Y-0YT7M4rxFN-33">
          <mxGeometry relative="1" as="geometry">
            <mxPoint x="400" y="160" as="targetPoint" />
          </mxGeometry>
        </mxCell>
        <mxCell id="HeqIuPr3Y-0YT7M4rxFN-0" value="72" style="ellipse;whiteSpace=wrap;html=1;aspect=fixed;" vertex="1" parent="WIyWlLk6GJQsqaUBKTNV-1">
          <mxGeometry x="280" y="80" width="40" height="40" as="geometry" />
        </mxCell>
        <mxCell id="HeqIuPr3Y-0YT7M4rxFN-3" value="25" style="ellipse;whiteSpace=wrap;html=1;aspect=fixed;" vertex="1" parent="WIyWlLk6GJQsqaUBKTNV-1">
          <mxGeometry x="160" y="140" width="40" height="40" as="geometry" />
        </mxCell>
        <mxCell id="HeqIuPr3Y-0YT7M4rxFN-7" value="" style="endArrow=none;html=1;rounded=0;exitX=1;exitY=0.5;exitDx=0;exitDy=0;entryX=0;entryY=1;entryDx=0;entryDy=0;" edge="1" parent="WIyWlLk6GJQsqaUBKTNV-1" source="HeqIuPr3Y-0YT7M4rxFN-3" target="HeqIuPr3Y-0YT7M4rxFN-0">
          <mxGeometry width="50" height="50" relative="1" as="geometry">
            <mxPoint x="380" y="230" as="sourcePoint" />
            <mxPoint x="430" y="180" as="targetPoint" />
          </mxGeometry>
        </mxCell>
        <mxCell id="HeqIuPr3Y-0YT7M4rxFN-13" style="edgeStyle=orthogonalEdgeStyle;rounded=0;orthogonalLoop=1;jettySize=auto;html=1;exitX=0;exitY=1;exitDx=0;exitDy=0;" edge="1" parent="WIyWlLk6GJQsqaUBKTNV-1">
          <mxGeometry relative="1" as="geometry">
            <mxPoint x="166" y="174" as="targetPoint" />
            <mxPoint x="165.85786437626894" y="174.14213562373106" as="sourcePoint" />
          </mxGeometry>
        </mxCell>
        <mxCell id="HeqIuPr3Y-0YT7M4rxFN-14" style="orthogonalLoop=1;jettySize=auto;html=1;exitX=1;exitY=1;exitDx=0;exitDy=0;entryX=0;entryY=0;entryDx=0;entryDy=0;rounded=0;endArrow=none;endFill=0;strokeColor=default;" edge="1" parent="WIyWlLk6GJQsqaUBKTNV-1" target="HeqIuPr3Y-0YT7M4rxFN-18">
          <mxGeometry relative="1" as="geometry">
            <mxPoint x="194.14213562373106" y="174.14213562373106" as="sourcePoint" />
          </mxGeometry>
        </mxCell>
        <mxCell id="HeqIuPr3Y-0YT7M4rxFN-16" value="4" style="ellipse;whiteSpace=wrap;html=1;aspect=fixed;" vertex="1" parent="WIyWlLk6GJQsqaUBKTNV-1">
          <mxGeometry x="90" y="200" width="40" height="40" as="geometry" />
        </mxCell>
        <mxCell id="HeqIuPr3Y-0YT7M4rxFN-17" value="" style="endArrow=none;html=1;rounded=0;exitX=1;exitY=0;exitDx=0;exitDy=0;entryX=0;entryY=1;entryDx=0;entryDy=0;" edge="1" parent="WIyWlLk6GJQsqaUBKTNV-1" source="HeqIuPr3Y-0YT7M4rxFN-16">
          <mxGeometry width="50" height="50" relative="1" as="geometry">
            <mxPoint x="260" y="290" as="sourcePoint" />
            <mxPoint x="165.85786437626894" y="174.14213562373106" as="targetPoint" />
          </mxGeometry>
        </mxCell>
        <mxCell id="HeqIuPr3Y-0YT7M4rxFN-18" value="49" style="ellipse;whiteSpace=wrap;html=1;aspect=fixed;" vertex="1" parent="WIyWlLk6GJQsqaUBKTNV-1">
          <mxGeometry x="230" y="200" width="40" height="40" as="geometry" />
        </mxCell>
        <mxCell id="HeqIuPr3Y-0YT7M4rxFN-19" style="orthogonalLoop=1;jettySize=auto;html=1;entryX=0;entryY=0;entryDx=0;entryDy=0;rounded=0;endArrow=none;endFill=0;strokeColor=default;exitX=1;exitY=1;exitDx=0;exitDy=0;" edge="1" parent="WIyWlLk6GJQsqaUBKTNV-1" target="HeqIuPr3Y-0YT7M4rxFN-22" source="HeqIuPr3Y-0YT7M4rxFN-16">
          <mxGeometry relative="1" as="geometry">
            <mxPoint x="124" y="230" as="sourcePoint" />
          </mxGeometry>
        </mxCell>
        <mxCell id="HeqIuPr3Y-0YT7M4rxFN-20" value="1" style="ellipse;whiteSpace=wrap;html=1;aspect=fixed;" vertex="1" parent="WIyWlLk6GJQsqaUBKTNV-1">
          <mxGeometry x="40" y="260.86" width="40" height="40" as="geometry" />
        </mxCell>
        <mxCell id="HeqIuPr3Y-0YT7M4rxFN-21" value="" style="endArrow=none;html=1;rounded=0;exitX=1;exitY=0;exitDx=0;exitDy=0;entryX=0;entryY=1;entryDx=0;entryDy=0;" edge="1" parent="WIyWlLk6GJQsqaUBKTNV-1" source="HeqIuPr3Y-0YT7M4rxFN-20" target="HeqIuPr3Y-0YT7M4rxFN-16">
          <mxGeometry width="50" height="50" relative="1" as="geometry">
            <mxPoint x="190" y="345.86" as="sourcePoint" />
            <mxPoint x="95.85786437626894" y="230.00213562373108" as="targetPoint" />
          </mxGeometry>
        </mxCell>
        <mxCell id="HeqIuPr3Y-0YT7M4rxFN-22" value="16" style="ellipse;whiteSpace=wrap;html=1;aspect=fixed;" vertex="1" parent="WIyWlLk6GJQsqaUBKTNV-1">
          <mxGeometry x="140" y="260.86" width="40" height="40" as="geometry" />
        </mxCell>
        <mxCell id="HeqIuPr3Y-0YT7M4rxFN-25" value="9" style="ellipse;whiteSpace=wrap;html=1;aspect=fixed;" vertex="1" parent="WIyWlLk6GJQsqaUBKTNV-1">
          <mxGeometry x="110" y="330" width="40" height="40" as="geometry" />
        </mxCell>
        <mxCell id="HeqIuPr3Y-0YT7M4rxFN-26" value="" style="endArrow=none;html=1;rounded=0;exitX=0.5;exitY=0;exitDx=0;exitDy=0;entryX=0;entryY=1;entryDx=0;entryDy=0;" edge="1" parent="WIyWlLk6GJQsqaUBKTNV-1" source="HeqIuPr3Y-0YT7M4rxFN-25" target="HeqIuPr3Y-0YT7M4rxFN-22">
          <mxGeometry width="50" height="50" relative="1" as="geometry">
            <mxPoint x="170" y="421.72" as="sourcePoint" />
            <mxPoint x="80" y="310" as="targetPoint" />
          </mxGeometry>
        </mxCell>
        <mxCell id="HeqIuPr3Y-0YT7M4rxFN-29" style="orthogonalLoop=1;jettySize=auto;html=1;entryX=0.333;entryY=0.05;entryDx=0;entryDy=0;rounded=0;endArrow=none;endFill=0;strokeColor=default;exitX=1;exitY=1;exitDx=0;exitDy=0;entryPerimeter=0;" edge="1" parent="WIyWlLk6GJQsqaUBKTNV-1" target="HeqIuPr3Y-0YT7M4rxFN-32" source="HeqIuPr3Y-0YT7M4rxFN-18">
          <mxGeometry relative="1" as="geometry">
            <mxPoint x="270" y="230" as="sourcePoint" />
          </mxGeometry>
        </mxCell>
        <mxCell id="HeqIuPr3Y-0YT7M4rxFN-30" value="36" style="ellipse;whiteSpace=wrap;html=1;aspect=fixed;direction=south;" vertex="1" parent="WIyWlLk6GJQsqaUBKTNV-1">
          <mxGeometry x="194.14" y="264.14" width="35.86" height="35.86" as="geometry" />
        </mxCell>
        <mxCell id="HeqIuPr3Y-0YT7M4rxFN-31" value="" style="endArrow=none;html=1;rounded=0;exitX=0;exitY=0.5;exitDx=0;exitDy=0;entryX=0;entryY=1;entryDx=0;entryDy=0;" edge="1" parent="WIyWlLk6GJQsqaUBKTNV-1" source="HeqIuPr3Y-0YT7M4rxFN-30" target="HeqIuPr3Y-0YT7M4rxFN-18">
          <mxGeometry width="50" height="50" relative="1" as="geometry">
            <mxPoint x="330" y="345.86" as="sourcePoint" />
            <mxPoint x="235.85786437626894" y="234.14213562373106" as="targetPoint" />
          </mxGeometry>
        </mxCell>
        <mxCell id="HeqIuPr3Y-0YT7M4rxFN-32" value="64" style="ellipse;whiteSpace=wrap;html=1;aspect=fixed;" vertex="1" parent="WIyWlLk6GJQsqaUBKTNV-1">
          <mxGeometry x="270" y="260" width="40" height="40" as="geometry" />
        </mxCell>
        <mxCell id="HeqIuPr3Y-0YT7M4rxFN-33" value="90" style="ellipse;whiteSpace=wrap;html=1;aspect=fixed;" vertex="1" parent="WIyWlLk6GJQsqaUBKTNV-1">
          <mxGeometry x="394" y="140" width="40" height="40" as="geometry" />
        </mxCell>
        <mxCell id="HeqIuPr3Y-0YT7M4rxFN-34" style="edgeStyle=orthogonalEdgeStyle;rounded=0;orthogonalLoop=1;jettySize=auto;html=1;exitX=0;exitY=1;exitDx=0;exitDy=0;" edge="1" parent="WIyWlLk6GJQsqaUBKTNV-1">
          <mxGeometry relative="1" as="geometry">
            <mxPoint x="396" y="174" as="targetPoint" />
            <mxPoint x="395.85786437626894" y="174.14213562373106" as="sourcePoint" />
          </mxGeometry>
        </mxCell>
        <mxCell id="HeqIuPr3Y-0YT7M4rxFN-35" style="orthogonalLoop=1;jettySize=auto;html=1;exitX=1;exitY=1;exitDx=0;exitDy=0;entryX=0;entryY=0;entryDx=0;entryDy=0;rounded=0;endArrow=none;endFill=0;strokeColor=default;" edge="1" parent="WIyWlLk6GJQsqaUBKTNV-1" target="HeqIuPr3Y-0YT7M4rxFN-38">
          <mxGeometry relative="1" as="geometry">
            <mxPoint x="424.14213562373106" y="174.14213562373106" as="sourcePoint" />
          </mxGeometry>
        </mxCell>
        <mxCell id="HeqIuPr3Y-0YT7M4rxFN-36" value="78" style="ellipse;whiteSpace=wrap;html=1;aspect=fixed;" vertex="1" parent="WIyWlLk6GJQsqaUBKTNV-1">
          <mxGeometry x="320" y="200" width="40" height="40" as="geometry" />
        </mxCell>
        <mxCell id="HeqIuPr3Y-0YT7M4rxFN-37" value="" style="endArrow=none;html=1;rounded=0;exitX=1;exitY=0;exitDx=0;exitDy=0;entryX=0;entryY=1;entryDx=0;entryDy=0;" edge="1" parent="WIyWlLk6GJQsqaUBKTNV-1" source="HeqIuPr3Y-0YT7M4rxFN-36">
          <mxGeometry width="50" height="50" relative="1" as="geometry">
            <mxPoint x="490" y="290" as="sourcePoint" />
            <mxPoint x="395.85786437626894" y="174.14213562373106" as="targetPoint" />
          </mxGeometry>
        </mxCell>
        <mxCell id="HeqIuPr3Y-0YT7M4rxFN-38" value="99" style="ellipse;whiteSpace=wrap;html=1;aspect=fixed;" vertex="1" parent="WIyWlLk6GJQsqaUBKTNV-1">
          <mxGeometry x="460" y="200" width="40" height="40" as="geometry" />
        </mxCell>
        <mxCell id="HeqIuPr3Y-0YT7M4rxFN-39" style="orthogonalLoop=1;jettySize=auto;html=1;entryX=0;entryY=0;entryDx=0;entryDy=0;rounded=0;endArrow=none;endFill=0;strokeColor=default;exitX=1;exitY=1;exitDx=0;exitDy=0;" edge="1" parent="WIyWlLk6GJQsqaUBKTNV-1" source="HeqIuPr3Y-0YT7M4rxFN-36" target="HeqIuPr3Y-0YT7M4rxFN-42">
          <mxGeometry relative="1" as="geometry">
            <mxPoint x="354" y="230" as="sourcePoint" />
          </mxGeometry>
        </mxCell>
        <mxCell id="HeqIuPr3Y-0YT7M4rxFN-42" value="85" style="ellipse;whiteSpace=wrap;html=1;aspect=fixed;" vertex="1" parent="WIyWlLk6GJQsqaUBKTNV-1">
          <mxGeometry x="370" y="260.86" width="40" height="40" as="geometry" />
        </mxCell>
      </root>
    </mxGraphModel>
  </diagram>
</mxfile>
